<svg width="149" height="144" fill="none" xmlns="http://www.w3.org/2000/svg"><path d="M104.25 67.252l-35-41.843m35 41.843L120 98.634m-15.75-31.382l3.5-37.485m-3.5 37.485l28.875-24.409M104.25 67.252l-35 12.204m35-12.204L60.5 59.406m8.75-33.997L60.5 59.406m8.75-33.997l38.5 4.358m-38.5-4.358l-46.375 4.358M69.25 25.41L96.375 1M69.25 25.409L46.5 4.487m14 54.92l-30.625 15.69M60.5 59.407l-37.625-29.64M60.5 59.407l8.75 20.05m-39.375-4.36l39.375 4.36m-39.375-4.36l-7-45.33m7 45.33L32.5 126.53m-2.625-51.433L1 79.457l10.938-24.845m17.937 20.485L11.937 54.612M69.25 79.456l6.125 33.998M69.25 79.456L32.5 126.53m36.75-47.074L120 98.634m-44.625 14.82L32.5 126.53m42.875-13.076l41.125 16.563m-41.125-16.563L120 98.634m-44.625 14.82L60.5 140.193l-28-13.663m42.875-13.076L85.875 143l30.625-12.983m-84-3.487L11.937 98.634m108.063 0l-3.5 31.383m3.5-31.383l13.125-55.79M120 98.633h23.625L116.5 130.017m-8.75-100.25l25.375 13.076M107.75 29.767L96.375 1m-73.5 28.767L11.937 54.612m121.188-11.769L148 75.097m-14.875-32.254L96.375 1" stroke="#fff" stroke-width=".3"/></svg>